<?xml version="1.0" encoding="utf-8"?>
<!-- Generator: Adobe Illustrator 23.0.4, SVG Export Plug-In . SVG Version: 6.00 Build 0)  -->
<svg version="1.1" id="Layer_1" xmlns="http://www.w3.org/2000/svg" xmlns:xlink="http://www.w3.org/1999/xlink" x="0px" y="0px"
	 viewBox="0 0 150 150" style="enable-background:new 0 0 150 150;" xml:space="preserve">
<style type="text/css">
	.st0{fill:#B9E0E8;}
	.st1{fill:#787678;}
	.st2{fill:#6B6B6B;}
	.st3{fill:#B7909B;}
	.st4{fill:#FBF8B2;}
	.st5{fill:#D1D6DF;}
</style>
<g>
	<g>
		<path class="st0" d="M124.6,54.1c-0.4-9-3.2-16.5-7.6-22.4c0-0.3,0-0.6,0-1c-0.5-8-4.6-14.8-10.7-19c0,0.2,0,0.4,0,0.6
			c0.2,3-0.9,5.9-2.8,8c-15-7.8-34.9-6.4-49,5.4c-0.1,0.1-0.2,0.2-0.3,0.3c-3.4-0.4-6.7-3.5-7.2-6.8c-3.1,5.8-3.7,11.6-1.7,17.5
			c-1.5,2.5-2.7,5.2-3.6,7.9c-3.2,9.5-1.2,17.2-0.2,26.7c1.7,15.5-4.9,26.4-20.2,29.6c13.3,16.5,46.1,20.7,67.4,12.6
			C113.4,104.1,125.9,82.2,124.6,54.1z M100.8,41.8c-0.2,1.1-1.2,1.9-2.3,1.7c-1.1-0.2-1.8-1.2-1.6-2.3c0.2-1.1,1.1-1.9,2.2-1.7
			c0.6,0.5,1.2,1,1.7,1.6C100.8,41.3,100.8,41.6,100.8,41.8z M95.5,37.1l-1,6.4c-0.1,0.4,0,0.8,0.3,1.1c0.2,0.3,0.6,0.5,1,0.6
			l4.9,0.8c0.4,0.1,0.8,0,1.1-0.3c0.3-0.2,0.5-0.6,0.6-1l0.2-1.5c0,0.1,0.1,0.1,0.1,0.2c0.2,0.3,0.5,0.6,0.7,1l-0.1,0.5
			c-0.1,0.7-0.5,1.2-1,1.6c-0.4,0.3-0.9,0.5-1.5,0.5c-0.1,0-0.3,0-0.4,0l-4.9-0.8c-0.7-0.1-1.2-0.5-1.6-1c-0.4-0.5-0.6-1.2-0.5-1.9
			l1.1-6.7C94.9,36.7,95.2,36.9,95.5,37.1z M73.1,45.2c0.2,0.6,0.2,1.3-0.1,1.9c-0.3,0.6-0.8,1.1-1.4,1.3L67,50.2
			c-0.3,0.1-0.6,0.2-0.9,0.2c-1,0-2-0.6-2.3-1.6l0,0v0c0.2-0.5,0.3-0.9,0.5-1.3l0.4,1c0.3,0.8,1.2,1.2,1.9,0.9l4.7-1.8
			c0.4-0.2,0.7-0.4,0.8-0.8c0.2-0.4,0.2-0.8,0-1.1l-2.3-5.9c0.3-0.2,0.5-0.5,0.8-0.7L73.1,45.2z M65.5,45c0.5-0.8,1-1.5,1.5-2.2v0
			c1-0.2,2,0.3,2.3,1.2c0.4,1-0.1,2.2-1.1,2.6c-1,0.4-2.2-0.1-2.6-1.2C65.6,45.2,65.6,45.1,65.5,45L65.5,45z M72.3,72.1
			c-0.1,0.7-0.6,1.2-1.2,1.5c0,0,0,0,0,0c-0.7-0.3-1.4-0.7-2-1.1c-0.3-0.2-0.5-0.4-0.8-0.5c0-0.2,0-0.3,0-0.5
			c0.2-1.1,1.2-1.8,2.3-1.7C71.8,70,72.5,71,72.3,72.1z M74,74.6l0.7-4.6c0.1-0.4,0-0.8-0.3-1.1c-0.2-0.3-0.6-0.5-1-0.6l-4.9-0.8
			c-0.1,0-0.2,0-0.2,0c-0.3,0-0.6,0.1-0.9,0.3c-0.3,0.2-0.5,0.6-0.6,1l-0.3,1.6c-0.3-0.3-0.6-0.6-0.8-1l0.1-0.8
			c0.1-0.7,0.5-1.2,1-1.6c0.5-0.4,1.2-0.6,1.9-0.5l4.9,0.8c0.6,0.1,1.2,0.5,1.6,1c0.4,0.5,0.5,1.2,0.4,1.9l-0.7,4.7
			C74.6,74.7,74.3,74.6,74,74.6z"/>
		<path class="st1" d="M93.9,73.3c-5.6,1.1-12.8,2.6-19,1.5l0.7-4.7c0.1-0.7-0.1-1.3-0.4-1.9c-0.4-0.5-1-0.9-1.6-1l-4.9-0.8
			c-0.7-0.1-1.3,0-1.9,0.5c-0.5,0.4-0.9,1-1,1.6l-0.1,0.8c-4.4-5.5-4.6-13.7-2-20.6l0,0c0.4,1,1.3,1.6,2.3,1.6
			c0.3,0,0.6-0.1,0.9-0.2l4.7-1.8c0.6-0.2,1.1-0.7,1.4-1.3c0.3-0.6,0.3-1.3,0.1-1.9L70.7,39c6.9-5.4,16.3-6.1,23.8-2.4l-1.1,6.7
			c-0.1,0.7,0.1,1.3,0.5,1.9c0.4,0.5,1,0.9,1.6,1l4.9,0.8c0.1,0,0.3,0,0.4,0c0.5,0,1-0.2,1.5-0.5c0.5-0.4,0.9-1,1-1.6l0.1-0.5
			C110,54.4,108.8,70.3,93.9,73.3z"/>
		<path class="st1" d="M56.7,35.8c2.1,1,4,0.6,5.8-0.7c1.4-1,2.6-2.3,3.7-3.6c1.2-1.5-0.9-3.6-2.1-2.1c-0.7,0.8-1.4,1.6-2.2,2.3
			c-0.6,0.5-1.2,1.2-2,1.5c-0.4,0.2-0.7,0.3-1.2,0.2c-0.1,0-1-0.3-0.6-0.2C56.5,32.4,55,34.9,56.7,35.8L56.7,35.8z"/>
		<path class="st1" d="M95.2,27.5c2.3,2.4,5.6,2.9,8.8,2.9c1.9,0,1.9-3,0-3c-2.4,0.1-4.9-0.2-6.7-2C96,24,93.9,26.1,95.2,27.5
			L95.2,27.5z"/>
		<g>
			<circle class="st2" cx="69.2" cy="53.3" r="1"/>
			<circle class="st2" cx="69.7" cy="58.3" r="1"/>
			<circle class="st2" cx="70.2" cy="63.3" r="1"/>
			<circle class="st2" cx="74.1" cy="52.8" r="1"/>
			<circle class="st2" cx="74.7" cy="57.8" r="1"/>
			<circle class="st2" cx="75.2" cy="62.7" r="1"/>
			<circle class="st2" cx="78" cy="42.3" r="1"/>
			<circle class="st2" cx="78.6" cy="47.3" r="1"/>
			<circle class="st2" cx="79.1" cy="52.2" r="1"/>
			<circle class="st2" cx="79.6" cy="57.2" r="1"/>
			<circle class="st2" cx="80.2" cy="62.2" r="1"/>
			<circle class="st2" cx="80.7" cy="67.2" r="1"/>
			<circle class="st2" cx="83" cy="41.8" r="1"/>
			<circle class="st2" cx="83.5" cy="46.7" r="1"/>
			<circle class="st2" cx="84.1" cy="51.7" r="1"/>
			<circle class="st2" cx="84.6" cy="56.7" r="1"/>
			<circle class="st2" cx="85.1" cy="61.7" r="1"/>
			<circle class="st2" cx="85.7" cy="66.6" r="1"/>
			<circle class="st2" cx="88" cy="41.2" r="1"/>
			<circle class="st2" cx="88.5" cy="46.2" r="1"/>
			<circle class="st2" cx="89" cy="51.2" r="1"/>
			<circle class="st2" cx="89.6" cy="56.2" r="1"/>
			<circle class="st2" cx="90.1" cy="61.1" r="1"/>
			<circle class="st2" cx="90.6" cy="66.1" r="1"/>
			<circle class="st2" cx="94" cy="50.6" r="1"/>
			<circle class="st2" cx="94.5" cy="55.6" r="1"/>
			<circle class="st2" cx="95.1" cy="60.6" r="1"/>
			<circle class="st2" cx="95.6" cy="65.6" r="1"/>
			<circle class="st2" cx="99" cy="50.1" r="1"/>
			<circle class="st2" cx="99.5" cy="55.1" r="1"/>
			<circle class="st2" cx="100" cy="60.1" r="1"/>
			<circle class="st2" cx="100.6" cy="65" r="1"/>
		</g>
		<path class="st1" d="M94.5,43.5l1-6.4c1.3,0.7,2.5,1.5,3.6,2.4c-1.1-0.1-2,0.6-2.2,1.7c-0.2,1.1,0.6,2.2,1.6,2.3
			c1.1,0.2,2.1-0.6,2.3-1.7c0-0.2,0-0.5,0-0.7c0.7,0.6,1.3,1.4,1.8,2.1l-0.2,1.5c-0.1,0.4-0.3,0.7-0.6,1c-0.3,0.2-0.7,0.3-1.1,0.3
			l-4.9-0.8c-0.4-0.1-0.8-0.3-1-0.6C94.5,44.3,94.4,43.9,94.5,43.5z"/>
		<path class="st1" d="M72.1,46.7c-0.2,0.4-0.5,0.6-0.8,0.8l-4.7,1.8c-0.8,0.3-1.6-0.1-1.9-0.9l-0.4-1c0.4-0.8,0.8-1.7,1.2-2.4
			c0,0.1,0.1,0.3,0.1,0.4c0.4,1,1.6,1.5,2.6,1.2c1-0.4,1.5-1.6,1.1-2.6C69,43,68,42.5,67,42.7c0.6-0.8,1.3-1.6,2-2.3
			c0.3-0.2,0.5-0.5,0.8-0.7l2.3,5.9C72.3,45.9,72.3,46.4,72.1,46.7z"/>
		<path class="st1" d="M74.7,69.9L74,74.6c-1-0.2-1.9-0.6-2.8-1c0.6-0.3,1-0.8,1.2-1.5c0.2-1.1-0.6-2.1-1.7-2.3
			c-1.1-0.2-2.1,0.6-2.3,1.7c0,0.2,0,0.3,0,0.5c-0.7-0.5-1.3-1-1.8-1.6l0.3-1.6c0.1-0.4,0.3-0.7,0.6-1c0.3-0.2,0.6-0.3,0.9-0.3
			c0.1,0,0.2,0,0.2,0l4.9,0.8c0.4,0.1,0.7,0.3,1,0.6C74.7,69.1,74.8,69.5,74.7,69.9z"/>
		<g>
			<g>
				<path class="st3" d="M73,47.1c-0.3,0.6-0.8,1.1-1.4,1.3L67,50.2c-0.3,0.1-0.6,0.2-0.9,0.2c-1,0-2-0.6-2.3-1.6l0,0v0
					c0.2-0.5,0.3-0.9,0.5-1.3l0.4,1c0.3,0.8,1.2,1.2,1.9,0.9l4.7-1.8c0.4-0.2,0.7-0.4,0.8-0.8c0.2-0.4,0.2-0.8,0-1.1l-2.3-5.9
					c0.3-0.2,0.5-0.5,0.8-0.7l2.4,6.2C73.3,45.8,73.3,46.5,73,47.1z"/>
			</g>
			<path class="st4" d="M68.2,46.5c-1,0.4-2.2-0.1-2.6-1.2c0-0.1-0.1-0.3-0.1-0.4v0c0.5-0.8,1-1.5,1.5-2.2v0c1-0.2,2,0.3,2.3,1.2
				C69.8,45,69.3,46.1,68.2,46.5z"/>
		</g>
		<g>
			<g>
				<path class="st3" d="M103.4,44.4l-0.1,0.5c-0.1,0.7-0.5,1.2-1,1.6c-0.4,0.3-0.9,0.5-1.5,0.5c-0.1,0-0.3,0-0.4,0l-4.9-0.8
					c-0.7-0.1-1.2-0.5-1.6-1c-0.4-0.5-0.6-1.2-0.5-1.9l1.1-6.7c0.3,0.2,0.6,0.3,0.9,0.5l-1,6.4c-0.1,0.4,0,0.8,0.3,1.1
					c0.2,0.3,0.6,0.5,1,0.6l4.9,0.8c0.4,0.1,0.8,0,1.1-0.3c0.3-0.2,0.5-0.6,0.6-1l0.2-1.5c0,0.1,0.1,0.1,0.1,0.2
					C103,43.7,103.2,44,103.4,44.4z"/>
			</g>
			<path class="st4" d="M100.8,41.8c-0.2,1.1-1.2,1.9-2.3,1.7c-1.1-0.2-1.8-1.2-1.6-2.3c0.2-1.1,1.1-1.9,2.2-1.7
				c0.6,0.5,1.2,1,1.7,1.6C100.8,41.3,100.8,41.6,100.8,41.8z"/>
		</g>
		<g>
			<g>
				<path class="st3" d="M75.7,70.1l-0.7,4.7c-0.3-0.1-0.7-0.1-1-0.2l0.7-4.6c0.1-0.4,0-0.8-0.3-1.1c-0.2-0.3-0.6-0.5-1-0.6
					l-4.9-0.8c-0.1,0-0.2,0-0.2,0c-0.3,0-0.6,0.1-0.9,0.3c-0.3,0.2-0.5,0.6-0.6,1l-0.3,1.6c-0.3-0.3-0.6-0.6-0.8-1l0.1-0.8
					c0.1-0.7,0.5-1.2,1-1.6c0.5-0.4,1.2-0.6,1.9-0.5l4.9,0.8c0.6,0.1,1.2,0.5,1.6,1C75.6,68.8,75.8,69.4,75.7,70.1z"/>
			</g>
			<path class="st4" d="M72.3,72.1c-0.1,0.7-0.6,1.2-1.2,1.5c0,0,0,0,0,0c-0.7-0.3-1.4-0.7-2-1.1c-0.3-0.2-0.5-0.4-0.8-0.5
				c0-0.2,0-0.3,0-0.5c0.2-1.1,1.2-1.8,2.3-1.7C71.8,70,72.5,71,72.3,72.1z"/>
		</g>
	</g>
	<ellipse class="st5" cx="72.2" cy="133.3" rx="25" ry="5"/>
</g>
</svg>
